#!OML:ASF H:\Terrain\Patient Classification 1\Takeo\Monday\TakeoMonday.ASF
:FULLY-SPECIFIED
:DEGREES
1984
root 10.5781 17.7531 0.238244 -7.34403 -32.0875 -0.471717
lowerback 2.32585 -5.15054 -6.03173
upperback 0.913022 -7.00054 -0.688352
thorax 0.276722 -3.52621 2.74326
lowerneck -8.65404 -11.0387 -8.65928
upperneck 22.2925 -16.2697 8.11198
head 9.8755 -7.66234 2.23498
rclavicle 1.82186e-013 2.38542e-015
rhumerus -16.7828 9.72505 -50.0689
rradius 94.6595
rwrist -56.6511
rhand -31.7279 6.33003
rfingers 7.12502
rthumb -4.98596 -23.5913
lclavicle 1.82186e-013 2.38542e-015
lhumerus -36.745 -29.0984 98.9034
lradius 63.3726
lwrist 27.4361
lhand -22.3921 25.1086
lfingers 7.12502
lthumb 4.03017 55.0503
rfemur 3.39893 13.808 18.4988
rtibia 17.3772
rfoot -10.2291 -4.15487
rtoes -4.34615
lfemur 11.467 7.63965 -23.3729
ltibia 14.9019
lfoot -24.3415 31.6757
ltoes 8.82575
1985
root 10.5735 17.7538 0.225316 -7.49101 -31.6095 -0.0208538
lowerback 2.46692 -5.07891 -6.44728
upperback 0.928909 -6.92485 -0.81801
thorax 0.240855 -3.48887 2.84965
lowerneck -8.62841 -10.9524 -8.53438
upperneck 22.5496 -16.1672 7.98357
head 9.92931 -7.61404 2.18695
rclavicle 7.03698e-014 1.74931e-014
rhumerus -18.658 9.93258 -50.5589
rradius 96.0707
rwrist -55.8987
rhand -31.6023 6.45191
rfingers 7.12502
rthumb -4.86469 -23.4722
lclavicle 7.03698e-014 1.74931e-014
lhumerus -36.5769 -27.1634 98.1406
lradius 61.6491
lwrist 26.7593
lhand -20.6536 24.754
lfingers 7.12502
lthumb 5.7088 54.6571
rfemur 3.38512 13.6053 18.0898
rtibia 17.3446
rfoot -10.1956 -4.42958
rtoes -4.99876
lfemur 11.2814 7.68113 -23.6497
ltibia 14.8835
lfoot -23.7275 31.4021
ltoes 7.61016
1986
root 10.5692 17.7661 0.211043 -7.28816 -31.1615 0.0615528
lowerback 2.41492 -4.9954 -6.46023
upperback 0.912938 -6.81053 -0.857246
thorax 0.239024 -3.43114 2.81309
lowerneck -8.43793 -10.9146 -8.64726
upperneck 22.6711 -16.1288 8.01599
head 9.94656 -7.60681 2.23014
rclavicle -9.08446e-014 3.85642e-014
rhumerus -20.575 10.0607 -51.1098
rradius 97.4504
rwrist -55.1681
rhand -31.2532 6.83971
rfingers 7.12502
rthumb -4.52761 -23.0919
lclavicle -9.08446e-014 3.85642e-014
lhumerus -36.296 -25.2054 97.4364
lradius 59.6788
lwrist 26.0036
lhand -20.5367 24.5055
lfingers 7.12502
lthumb 5.82163 54.4056
rfemur 3.14116 13.3887 17.9935
rtibia 17.3583
rfoot -10.1092 -4.69463
rtoes -5.73945
lfemur 10.9491 7.58169 -23.6399
ltibia 14.8809
lfoot -23.7328 30.9262
ltoes 8.17328
1987
root 10.5654 17.7723 0.195322 -6.99466 -30.6761 0.0318797
lowerback 2.32163 -4.94524 -6.39718
upperback 0.870837 -6.73624 -0.801434
thorax 0.239918 -3.39293 2.82948
lowerneck -8.57204 -10.8283 -8.65828
upperneck 23.2445 -15.9821 7.71046
head 10.1367 -7.55443 2.13462
rclavicle 5.06404e-014 1.39149e-014
rhumerus -22.3187 9.96275 -51.7373
rradius 98.5598
rwrist -54.3018
rhand -30.9979 7.04196
rfingers 7.12502
rthumb -4.28114 -22.8948
lclavicle 5.06404e-014 1.39149e-014
lhumerus -36.0651 -23.25 96.873
lradius 57.683
lwrist 25.4636
lhand -20.8458 24.1181
lfingers 7.12502
lthumb 5.52319 54.0261
rfemur 2.98889 13.2299 17.9974
rtibia 17.1318
rfoot -10.0126 -5.00345
rtoes -5.35754
lfemur 10.4819 7.79556 -23.4955
ltibia 15.1487
lfoot -23.278 30.392
ltoes 7.72314
1988
root 10.561 17.7746 0.182968 -6.40953 -30.2782 -0.581463
lowerback 2.31644 -4.98509 -5.98016
upperback 0.719599 -6.78365 -0.490517
thorax 0.0805345 -3.40827 2.92863
lowerneck -8.70603 -10.5601 -8.45149
upperneck 23.99 -15.5361 7.04631
head 10.3118 -7.38285 1.9263
rclavicle -4.83544e-014 -1.51076e-014
rhumerus -23.9401 10.0665 -52.4542
rradius 99.5761
rwrist -53.1153
rhand -30.9786 6.90077
rfingers 7.12502
rthumb -4.26244 -23.0363
lclavicle -4.83544e-014 -1.51076e-014
lhumerus -36.0008 -21.0408 96.347
lradius 55.8325
lwrist 25.5178
lhand -21.0604 24.0954
lfingers 7.12502
lthumb 5.31608 54.0087
rfemur 2.86181 13.1495 18.5713
rtibia 16.9268
rfoot -9.89528 -5.4246
rtoes -3.8747
lfemur 9.99183 8.03548 -22.7934
ltibia 15.4223
lfoot -22.1404 30.1699
ltoes 5.54928
1989
root 10.5583 17.7854 0.177251 -5.99522 -29.9291 -1.01182
lowerback 2.4154 -5.07832 -5.77217
upperback 0.539731 -6.91405 -0.192868
thorax -0.13564 -3.46386 3.13956
lowerneck -8.64365 -10.213 -8.54071
upperneck 24.6084 -14.9941 6.65282
head 10.45 -7.17746 1.88004
rclavicle -1.19271e-013 -2.34566e-014
rhumerus -25.5081 10.5374 -53.2815
rradius 100.669
rwrist -52.3309
rhand -30.7309 6.8338
rfingers 7.12502
rthumb -4.02332 -23.108
lclavicle -1.19271e-013 -2.34566e-014
lhumerus -35.9595 -18.5403 95.6761
lradius 54.0733
lwrist 25.5621
lhand -21.3002 24.1841
lfingers 7.12502
lthumb 5.08454 54.1031
rfemur 2.71805 12.9995 18.959
rtibia 16.9182
rfoot -9.86094 -5.71416
rtoes -3.37782
lfemur 9.67185 7.6735 -22.4074
ltibia 15.5798
lfoot -22.211 29.9867
ltoes 5.54125
1990
root 10.5604 17.7844 0.181149 -6.3431 -29.6046 -0.282299
lowerback 2.55546 -5.16972 -6.42475
upperback 0.47064 -7.06492 -0.254379
thorax -0.19973 -3.5359 3.44864
lowerneck -8.69064 -9.91496 -8.75389
upperneck 25.1894 -14.5442 6.47954
head 10.6362 -7.00144 1.90853
rclavicle -2.68359e-015 9.54166e-015
rhumerus -26.9843 10.8461 -54.4533
rradius 101.643
rwrist -51.8611
rhand -30.3783 7.07771
rfingers 7.12502
rthumb -3.68276 -22.8702
lclavicle -2.68359e-015 9.54166e-015
lhumerus -35.8936 -15.7821 94.7757
lradius 52.4039
lwrist 24.9097
lhand -20.8173 24.4545
lfingers 7.12502
lthumb 5.55077 54.3618
rfemur 2.75752 12.7767 18.2056
rtibia 16.9658
rfoot -9.95307 -5.68417
rtoes -4.12629
lfemur 9.66628 7.45117 -23.1815
ltibia 15.6081
lfoot -22.3447 29.9608
ltoes 5.76414
1991
root 10.5644 17.7721 0.185231 -6.50113 -29.2313 0.230933
lowerback 2.62961 -5.24644 -6.73695
upperback 0.376726 -7.18526 -0.324059
thorax -0.296316 -3.59022 3.55992
lowerneck -8.69316 -9.62452 -8.57449
upperneck 25.5775 -14.1012 6.11673
head 10.6958 -6.81839 1.81564
rclavicle -6.33129e-014 1.78906e-015
rhumerus -28.8005 13.3706 -54.5251
rradius 103.737
rwrist -52.7768
rhand -31.7136 7.54619
rfingers 7.12502
rthumb -4.97216 -22.3755
lclavicle -6.33129e-014 1.78906e-015
lhumerus -36.0588 -13.2113 93.9056
lradius 50.9528
lwrist 24.1017
lhand -20.849 24.9103
lfingers 7.12502
lthumb 5.52015 54.8184
rfemur 2.64846 12.4483 17.6192
rtibia 17.1523
rfoot -10.1497 -5.60664
rtoes -4.76835
lfemur 9.66208 7.52768 -23.6975
ltibia 15.3464
lfoot -21.4424 30.1097
ltoes 4.67499
1992
root 10.5661 17.7679 0.1845 -6.55179 -28.8369 0.299439
lowerback 2.71473 -5.15089 -6.55664
upperback 0.445591 -7.05764 -0.376242
thorax -0.314931 -3.52755 3.4141
lowerneck -8.94581 -9.50695 -8.41339
upperneck 26.0683 -13.9135 5.84243
head 10.8763 -6.73333 1.70309
rclavicle -2.44505e-014 -5.96354e-015
rhumerus -30.6691 13.9492 -55.0029
rradius 105.166
rwrist -52.6196
rhand -31.8628 7.67096
rfingers 7.12502
rthumb -5.11629 -22.2473
lclavicle -2.44505e-014 -5.96354e-015
lhumerus -36.1868 -11.3893 93.1717
lradius 49.7286
lwrist 23.499
lhand -22.0972 24.9248
lfingers 7.12502
lthumb 4.31488 54.8608
rfemur 2.55552 12.1602 17.5233
rtibia 17.5501
rfoot -10.4779 -5.67673
rtoes -5.30591
lfemur 9.90014 7.20056 -23.8067
ltibia 14.8125
lfoot -21.198 30.1395
ltoes 5.12947
1993
root 10.5668 17.7732 0.179465 -6.89578 -28.4714 0.670953
lowerback 2.79145 -4.93537 -6.66239
upperback 0.715693 -6.77059 -0.52317
thorax -0.114533 -3.39714 3.31259
lowerneck -9.39221 -9.5184 -8.35219
upperneck 26.5839 -13.9093 5.68879
head 11.1405 -6.71963 1.60974
rclavicle 2.51463e-014 7.95139e-016
rhumerus -32.3121 13.4525 -55.7888
rradius 106.256
rwrist -52.1077
rhand -31.9911 7.98868
rfingers 7.12502
rthumb -5.2401 -21.9265
lclavicle 2.51463e-014 7.95139e-016
lhumerus -36.0128 -10.0612 92.5112
lradius 48.6088
lwrist 22.9986
lhand -23.1976 24.7573
lfingers 7.12502
lthumb 3.25231 54.7123
rfemur 2.68434 11.9965 17.1797
rtibia 17.7809
rfoot -10.6844 -5.8403
rtoes -5.56654
lfemur 10.2432 6.77319 -24.1948
ltibia 14.4457
lfoot -21.5794 29.9689
ltoes 6.19108
1994
root 10.5655 17.7764 0.175729 -7.12866 -28.1561 0.982592
lowerback 3.02913 -4.89371 -6.96009
upperback 0.768975 -6.74067 -0.499664
thorax -0.157881 -3.38278 3.51829
lowerneck -9.48223 -9.27548 -8.14838
upperneck 26.8752 -13.5251 5.37112
head 11.1943 -6.55469 1.51564
rclavicle -1.3982e-013 -1.74931e-014
rhumerus -33.8571 13.6432 -56.7526
rradius 107.565
rwrist -51.5482
rhand -32.3326 8.20938
rfingers 7.12502
rthumb -5.56986 -21.6974
lclavicle -1.3982e-013 -1.74931e-014
lhumerus -36.0757 -8.08909 91.7655
lradius 47.5553
lwrist 22.3711
lhand -23.535 24.8345
lfingers 7.12502
lthumb 2.92648 54.7942
rfemur 2.84649 11.8448 16.8743
rtibia 17.7078
rfoot -10.7143 -5.94884
rtoes -4.95648
lfemur 10.3334 6.7708 -24.4612
ltibia 14.441
lfoot -21.2104 29.8916
ltoes 5.00928
